<svg width="88" height="68" viewBox="0 0 88 68" fill="none" xmlns="http://www.w3.org/2000/svg">
<path d="M54.8036 67.7862V43.6512C54.8036 29.2645 42.9813 17.5704 28.4811 17.5704C13.981 17.5704 2.15866 29.2841 2.15866 43.6512V67.7862H0.413086V43.6512C0.413086 28.3014 13.009 15.8212 28.501 15.8212C43.993 15.8212 56.5889 28.3014 56.5889 43.6512V67.7862H54.8036Z" fill="#082921"/>
<path d="M61.9248 34.3942C58.9692 24.921 52.0266 17.079 42.9218 12.9124L43.6558 11.3401C53.2167 15.7229 60.4966 23.9383 63.6109 33.8832L61.9446 34.3942H61.9248Z" fill="#082921"/>
<path d="M48.0197 67.7862H46.2741V44.2605C46.2741 34.5317 38.2802 26.6112 28.4613 26.6112C18.6425 26.6112 10.6485 34.5317 10.6485 44.2605V67.7862H8.90294V44.2605C8.90294 33.5687 17.6705 24.8817 28.4613 24.8817C39.2521 24.8817 48.0197 33.5687 48.0197 44.2605V67.7862Z" fill="#082921"/>
<path d="M37.8636 67.7862V45.0859C37.8636 39.9562 33.6584 35.7896 28.4811 35.7896C23.3039 35.7896 19.0987 39.9562 19.0987 45.0859V67.7862H17.3531V45.0859C17.3531 38.9932 22.3518 34.0404 28.501 34.0404C34.6502 34.0404 39.6489 38.9932 39.6489 45.0859V67.7862H37.8636Z" fill="#082921"/>
<path d="M29.3341 43.1991H27.5885V67.7862H29.3341V43.1991Z" fill="#082921"/>
<path d="M58.87 45.5576H54.9822C38.3992 45.5576 24.9107 32.1929 24.9107 15.7622V6.03351H26.6562V15.7622C26.6562 31.2299 39.3513 43.8281 54.9822 43.8281H58.87C66.1499 43.8281 73.2512 40.8996 78.3689 35.7699L86.1645 27.9673L87.4142 29.1859L79.6186 36.9885C74.1637 42.4326 66.6061 45.5576 58.87 45.5576Z" fill="#082921"/>
<path d="M80.0153 51.2573H78.2697V56.0332C78.2697 58.1755 76.5241 59.9247 74.3422 59.9247C72.18 59.9247 70.4146 58.1951 70.4146 56.0332V29.2841C70.4146 16.4501 59.9213 6.05317 46.9684 6.05317H26.6562V7.78272H46.9684C58.9494 7.78272 68.6691 17.4132 68.6691 29.2841V56.0332C68.6691 59.1385 71.2081 61.6542 74.3422 61.6542C77.4763 61.6542 80.0153 59.1385 80.0153 56.0332V51.2573Z" fill="#082921"/>
<path d="M25.6843 0.353516L27.9654 4.5005L32.1508 6.76071L30.068 7.88098C28.6993 8.62783 27.5687 9.74811 26.8149 11.1042L25.6843 13.1679L23.4031 9.02091L19.2177 6.76071L23.4031 4.5005L25.6843 0.353516Z" fill="#082921"/>
</svg>
